<mxfile host="app.diagrams.net" agent="Mozilla/5.0 (Macintosh; Intel Mac OS X 10_15_7) AppleWebKit/537.36 (KHTML, like Gecko) Chrome/130.0.0.0 Safari/537.36" version="24.8.4">
  <diagram name="Page-1" id="5GnlXdhuxTBBL0dUoBOL">
    <mxGraphModel dx="1149" dy="859" grid="1" gridSize="10" guides="1" tooltips="1" connect="1" arrows="1" fold="1" page="1" pageScale="1" pageWidth="850" pageHeight="1100" math="0" shadow="0">
      <root>
        <mxCell id="0" />
        <mxCell id="1" parent="0" />
        <mxCell id="MEl1sCkfjatCaO8NV3En-6" value="" style="edgeStyle=orthogonalEdgeStyle;rounded=0;orthogonalLoop=1;jettySize=auto;html=1;" edge="1" parent="1" source="MEl1sCkfjatCaO8NV3En-4" target="MEl1sCkfjatCaO8NV3En-5">
          <mxGeometry relative="1" as="geometry" />
        </mxCell>
        <mxCell id="MEl1sCkfjatCaO8NV3En-4" value="" style="ellipse;fillColor=strokeColor;html=1;" vertex="1" parent="1">
          <mxGeometry x="140" y="60" width="30" height="30" as="geometry" />
        </mxCell>
        <mxCell id="MEl1sCkfjatCaO8NV3En-8" value="" style="edgeStyle=orthogonalEdgeStyle;rounded=0;orthogonalLoop=1;jettySize=auto;html=1;entryX=0;entryY=0.25;entryDx=0;entryDy=0;" edge="1" parent="1" target="MEl1sCkfjatCaO8NV3En-7">
          <mxGeometry relative="1" as="geometry">
            <mxPoint x="215" y="170" as="sourcePoint" />
            <mxPoint x="425" y="170" as="targetPoint" />
            <Array as="points" />
          </mxGeometry>
        </mxCell>
        <mxCell id="MEl1sCkfjatCaO8NV3En-9" value="if no user" style="edgeLabel;html=1;align=center;verticalAlign=middle;resizable=0;points=[];" vertex="1" connectable="0" parent="MEl1sCkfjatCaO8NV3En-8">
          <mxGeometry x="-0.1905" y="2" relative="1" as="geometry">
            <mxPoint as="offset" />
          </mxGeometry>
        </mxCell>
        <mxCell id="MEl1sCkfjatCaO8NV3En-12" value="" style="edgeStyle=orthogonalEdgeStyle;rounded=0;orthogonalLoop=1;jettySize=auto;html=1;exitX=0;exitY=0.5;exitDx=0;exitDy=0;" edge="1" parent="1" source="MEl1sCkfjatCaO8NV3En-5" target="MEl1sCkfjatCaO8NV3En-11">
          <mxGeometry relative="1" as="geometry" />
        </mxCell>
        <mxCell id="MEl1sCkfjatCaO8NV3En-13" value="If user presses Open" style="edgeLabel;html=1;align=center;verticalAlign=middle;resizable=0;points=[];" vertex="1" connectable="0" parent="MEl1sCkfjatCaO8NV3En-12">
          <mxGeometry x="-0.15" y="1" relative="1" as="geometry">
            <mxPoint x="-1" y="2" as="offset" />
          </mxGeometry>
        </mxCell>
        <mxCell id="MEl1sCkfjatCaO8NV3En-36" style="edgeStyle=orthogonalEdgeStyle;rounded=0;orthogonalLoop=1;jettySize=auto;html=1;exitX=0.75;exitY=0;exitDx=0;exitDy=0;entryX=0.5;entryY=1;entryDx=0;entryDy=0;" edge="1" parent="1" source="MEl1sCkfjatCaO8NV3En-5" target="MEl1sCkfjatCaO8NV3En-38">
          <mxGeometry relative="1" as="geometry">
            <mxPoint x="580" y="80" as="targetPoint" />
          </mxGeometry>
        </mxCell>
        <mxCell id="MEl1sCkfjatCaO8NV3En-37" value="If temp is high" style="edgeLabel;html=1;align=center;verticalAlign=middle;resizable=0;points=[];" vertex="1" connectable="0" parent="MEl1sCkfjatCaO8NV3En-36">
          <mxGeometry x="-0.143" y="-1" relative="1" as="geometry">
            <mxPoint as="offset" />
          </mxGeometry>
        </mxCell>
        <mxCell id="MEl1sCkfjatCaO8NV3En-5" value="Default" style="whiteSpace=wrap;html=1;" vertex="1" parent="1">
          <mxGeometry x="95" y="155" width="120" height="60" as="geometry" />
        </mxCell>
        <mxCell id="MEl1sCkfjatCaO8NV3En-10" value="if user detected" style="edgeStyle=orthogonalEdgeStyle;rounded=0;orthogonalLoop=1;jettySize=auto;html=1;exitX=0;exitY=0.75;exitDx=0;exitDy=0;entryX=1;entryY=0.75;entryDx=0;entryDy=0;" edge="1" parent="1" source="MEl1sCkfjatCaO8NV3En-7" target="MEl1sCkfjatCaO8NV3En-5">
          <mxGeometry relative="1" as="geometry" />
        </mxCell>
        <mxCell id="MEl1sCkfjatCaO8NV3En-39" style="edgeStyle=orthogonalEdgeStyle;rounded=0;orthogonalLoop=1;jettySize=auto;html=1;exitX=1;exitY=0.25;exitDx=0;exitDy=0;entryX=0.75;entryY=1;entryDx=0;entryDy=0;" edge="1" parent="1" source="MEl1sCkfjatCaO8NV3En-7" target="MEl1sCkfjatCaO8NV3En-38">
          <mxGeometry relative="1" as="geometry">
            <Array as="points">
              <mxPoint x="545" y="160" />
              <mxPoint x="774" y="160" />
            </Array>
          </mxGeometry>
        </mxCell>
        <mxCell id="MEl1sCkfjatCaO8NV3En-48" value="if temp is hight" style="edgeLabel;html=1;align=center;verticalAlign=middle;resizable=0;points=[];" vertex="1" connectable="0" parent="MEl1sCkfjatCaO8NV3En-39">
          <mxGeometry x="-0.4875" y="-6" relative="1" as="geometry">
            <mxPoint as="offset" />
          </mxGeometry>
        </mxCell>
        <mxCell id="MEl1sCkfjatCaO8NV3En-7" value="Sleep" style="whiteSpace=wrap;html=1;" vertex="1" parent="1">
          <mxGeometry x="420" y="155" width="125" height="60" as="geometry" />
        </mxCell>
        <mxCell id="MEl1sCkfjatCaO8NV3En-18" value="" style="edgeStyle=orthogonalEdgeStyle;rounded=0;orthogonalLoop=1;jettySize=auto;html=1;" edge="1" parent="1" source="MEl1sCkfjatCaO8NV3En-11" target="MEl1sCkfjatCaO8NV3En-17">
          <mxGeometry relative="1" as="geometry">
            <Array as="points">
              <mxPoint x="210" y="420" />
              <mxPoint x="210" y="560" />
            </Array>
          </mxGeometry>
        </mxCell>
        <mxCell id="MEl1sCkfjatCaO8NV3En-19" value="User Presses Close / Timeout / Container full" style="edgeLabel;html=1;align=center;verticalAlign=middle;resizable=0;points=[];" vertex="1" connectable="0" parent="MEl1sCkfjatCaO8NV3En-18">
          <mxGeometry x="-0.1086" y="3" relative="1" as="geometry">
            <mxPoint as="offset" />
          </mxGeometry>
        </mxCell>
        <mxCell id="MEl1sCkfjatCaO8NV3En-44" style="edgeStyle=orthogonalEdgeStyle;rounded=0;orthogonalLoop=1;jettySize=auto;html=1;exitX=0;exitY=0.25;exitDx=0;exitDy=0;entryX=0;entryY=0.25;entryDx=0;entryDy=0;" edge="1" parent="1" source="MEl1sCkfjatCaO8NV3En-11" target="MEl1sCkfjatCaO8NV3En-38">
          <mxGeometry relative="1" as="geometry">
            <Array as="points">
              <mxPoint x="20" y="405" />
              <mxPoint x="20" y="35" />
            </Array>
          </mxGeometry>
        </mxCell>
        <mxCell id="MEl1sCkfjatCaO8NV3En-45" value="if temp is high" style="edgeLabel;html=1;align=center;verticalAlign=middle;resizable=0;points=[];" vertex="1" connectable="0" parent="MEl1sCkfjatCaO8NV3En-44">
          <mxGeometry x="0.4198" y="-1" relative="1" as="geometry">
            <mxPoint as="offset" />
          </mxGeometry>
        </mxCell>
        <mxCell id="MEl1sCkfjatCaO8NV3En-11" value="Door Open" style="whiteSpace=wrap;html=1;" vertex="1" parent="1">
          <mxGeometry x="60" y="390" width="120" height="60" as="geometry" />
        </mxCell>
        <mxCell id="MEl1sCkfjatCaO8NV3En-23" style="edgeStyle=orthogonalEdgeStyle;rounded=0;orthogonalLoop=1;jettySize=auto;html=1;exitX=0.75;exitY=0;exitDx=0;exitDy=0;entryX=0.5;entryY=1;entryDx=0;entryDy=0;" edge="1" parent="1" source="MEl1sCkfjatCaO8NV3En-17" target="MEl1sCkfjatCaO8NV3En-5">
          <mxGeometry relative="1" as="geometry">
            <Array as="points">
              <mxPoint x="490" y="530" />
              <mxPoint x="490" y="460" />
              <mxPoint x="380" y="460" />
              <mxPoint x="380" y="338" />
              <mxPoint x="155" y="338" />
            </Array>
          </mxGeometry>
        </mxCell>
        <mxCell id="MEl1sCkfjatCaO8NV3En-24" value="if not full" style="edgeLabel;html=1;align=center;verticalAlign=middle;resizable=0;points=[];" vertex="1" connectable="0" parent="MEl1sCkfjatCaO8NV3En-23">
          <mxGeometry x="0.0024" relative="1" as="geometry">
            <mxPoint x="1" as="offset" />
          </mxGeometry>
        </mxCell>
        <mxCell id="MEl1sCkfjatCaO8NV3En-26" value="" style="edgeStyle=orthogonalEdgeStyle;rounded=0;orthogonalLoop=1;jettySize=auto;html=1;" edge="1" parent="1" source="MEl1sCkfjatCaO8NV3En-17" target="MEl1sCkfjatCaO8NV3En-25">
          <mxGeometry relative="1" as="geometry">
            <Array as="points">
              <mxPoint x="540" y="600" />
              <mxPoint x="540" y="440" />
              <mxPoint x="530" y="440" />
            </Array>
          </mxGeometry>
        </mxCell>
        <mxCell id="MEl1sCkfjatCaO8NV3En-27" value="If full" style="edgeLabel;html=1;align=center;verticalAlign=middle;resizable=0;points=[];" vertex="1" connectable="0" parent="MEl1sCkfjatCaO8NV3En-26">
          <mxGeometry x="-0.15" y="-4" relative="1" as="geometry">
            <mxPoint y="-4" as="offset" />
          </mxGeometry>
        </mxCell>
        <mxCell id="MEl1sCkfjatCaO8NV3En-17" value="Door Close" style="whiteSpace=wrap;html=1;" vertex="1" parent="1">
          <mxGeometry x="250" y="570" width="120" height="60" as="geometry" />
        </mxCell>
        <mxCell id="MEl1sCkfjatCaO8NV3En-34" style="edgeStyle=orthogonalEdgeStyle;rounded=0;orthogonalLoop=1;jettySize=auto;html=1;exitX=0.25;exitY=0;exitDx=0;exitDy=0;entryX=0.75;entryY=1;entryDx=0;entryDy=0;" edge="1" parent="1" source="MEl1sCkfjatCaO8NV3En-25" target="MEl1sCkfjatCaO8NV3En-5">
          <mxGeometry relative="1" as="geometry" />
        </mxCell>
        <mxCell id="MEl1sCkfjatCaO8NV3En-35" value="if emptied" style="edgeLabel;html=1;align=center;verticalAlign=middle;resizable=0;points=[];" vertex="1" connectable="0" parent="MEl1sCkfjatCaO8NV3En-34">
          <mxGeometry x="-0.1612" y="-2" relative="1" as="geometry">
            <mxPoint x="-1" as="offset" />
          </mxGeometry>
        </mxCell>
        <mxCell id="MEl1sCkfjatCaO8NV3En-40" style="edgeStyle=orthogonalEdgeStyle;rounded=0;orthogonalLoop=1;jettySize=auto;html=1;exitX=0.75;exitY=0;exitDx=0;exitDy=0;entryX=0.25;entryY=1;entryDx=0;entryDy=0;" edge="1" parent="1" source="MEl1sCkfjatCaO8NV3En-25" target="MEl1sCkfjatCaO8NV3En-38">
          <mxGeometry relative="1" as="geometry" />
        </mxCell>
        <mxCell id="MEl1sCkfjatCaO8NV3En-47" value="if temp is high" style="edgeLabel;html=1;align=center;verticalAlign=middle;resizable=0;points=[];" vertex="1" connectable="0" parent="MEl1sCkfjatCaO8NV3En-40">
          <mxGeometry x="-0.7655" y="-4" relative="1" as="geometry">
            <mxPoint as="offset" />
          </mxGeometry>
        </mxCell>
        <mxCell id="MEl1sCkfjatCaO8NV3En-25" value="CONTAINER IS FULL" style="whiteSpace=wrap;html=1;" vertex="1" parent="1">
          <mxGeometry x="470" y="290" width="150" height="60" as="geometry" />
        </mxCell>
        <mxCell id="MEl1sCkfjatCaO8NV3En-38" value="&quot;PROBLEM DETECTED&quot;" style="whiteSpace=wrap;html=1;" vertex="1" parent="1">
          <mxGeometry x="680" y="20" width="125" height="60" as="geometry" />
        </mxCell>
        <mxCell id="MEl1sCkfjatCaO8NV3En-42" style="edgeStyle=orthogonalEdgeStyle;rounded=0;orthogonalLoop=1;jettySize=auto;html=1;exitX=1;exitY=0.25;exitDx=0;exitDy=0;entryX=0.134;entryY=0.957;entryDx=0;entryDy=0;entryPerimeter=0;" edge="1" parent="1" source="MEl1sCkfjatCaO8NV3En-17" target="MEl1sCkfjatCaO8NV3En-38">
          <mxGeometry relative="1" as="geometry">
            <Array as="points">
              <mxPoint x="370" y="630" />
              <mxPoint x="697" y="630" />
            </Array>
          </mxGeometry>
        </mxCell>
        <mxCell id="MEl1sCkfjatCaO8NV3En-46" value="if temp is hugh" style="edgeLabel;html=1;align=center;verticalAlign=middle;resizable=0;points=[];" vertex="1" connectable="0" parent="MEl1sCkfjatCaO8NV3En-42">
          <mxGeometry x="-0.3998" relative="1" as="geometry">
            <mxPoint as="offset" />
          </mxGeometry>
        </mxCell>
      </root>
    </mxGraphModel>
  </diagram>
</mxfile>
